{"title":"Stolichani v poveche - Season 5 - Episode 3","uid":8281655,"size":933227019,"categoryP":"video","categoryS":"tv_shows","magnet":"?xt=urn:btih:086e878053defb7c06a74c5b359cc1d8549a5298&amp;dn=Stolichani+v+poveche+-+Season+5+-+Episode+3&amp;tr=udp%3A%2F%2Ftracker.openbittorrent.com%3A80&amp;tr=udp%3A%2F%2Fopen.demonii.com%3A1337&amp;tr=udp%3A%2F%2Ftracker.coppersurfer.tk%3A6969&amp;tr=udp%3A%2F%2Fexodus.desync.com%3A6969","seeders":2,"leechers":0,"uploader":"randomname456","files":1,"time":1363857101,"description":"Stolichani v poveche.S05E03.WEB.Rip.MP4.MC.FREEPLAY.mp4\n\n   General\n      Complete name : Stolichani v poveche.S05E03.WEB.Rip.MP4.MC.FREEPLAY.mp4\n      Format : MPEG-4\n      Format profile : Base Media / Version 2\n      Codec ID : mp42\n      File size : 890 MiB\n      Duration : 47mn 17s\n      Overall bit rate : 2 631 Kbps\n      Encoded date : UTC 2013-03-21 07:17:43\n      Tagged date : UTC 2013-03-21 07:17:43\n   Video #1\n      ID : 1\n      Format : MPEG-4 Visual\n      Format profile : AdvancedSimple@L5\n      Format settings, BVOP : No\n      Format settings, QPel : No\n      Format settings, GMC : No warppoints\n      Format settings, Matrix : Default (H.263)\n      Codec ID : 20\n      Duration : 47mn 17s\n      Bit rate mode : Variable\n      Bit rate : 2 502 Kbps\n      Maximum bit rate : 19.8 Mbps\n      Width : 1 280 pixels\n      Height : 720 pixels\n      Display aspect ratio : 16:9\n      Frame rate mode : Constant\n      Frame rate : 30.000 fps\n      Resolution : 24 bits\n      Colorimetry : 4:2:0\n      Scan type : Progressive\n      Bits/(Pixel*Frame) : 0.091\n      Stream size : 846 MiB (95%)\n      Language : English\n      Encoded date : UTC 2013-03-21 07:17:43\n      Tagged date : UTC 2013-03-21 07:17:43\n   Audio #2\n      ID : 2\n      Format : AAC\n      Format/Info : Advanced Audio Codec\n      Format version : Version 4\n      Format profile : LC\n      Format settings, SBR : No\n      Codec ID : 40\n      Duration : 47mn 17s\n      Bit rate mode : Variable\n      Bit rate : 126 Kbps\n      Maximum bit rate : 288 Kbps\n      Channel(s) : 2 channels\n      Channel positions : L R\n      Sampling rate : 44.1 KHz\n      Resolution : 16 bits\n      Stream size : 42.5 MiB (5%)\n      Language : English\n      Encoded date : UTC 2013-03-21 07:17:43\n      Tagged date : UTC 2013-03-21 07:17:43","torrent":{"xt":"urn:btih:086e878053defb7c06a74c5b359cc1d8549a5298","amp;dn":"Stolichani+v+poveche+-+Season+5+-+Episode+3","amp;tr":["udp%3A%2F%2Ftracker.openbittorrent.com%3A80","udp%3A%2F%2Fopen.demonii.com%3A1337","udp%3A%2F%2Ftracker.coppersurfer.tk%3A6969","udp%3A%2F%2Fexodus.desync.com%3A6969"],"infoHash":"086e878053defb7c06a74c5b359cc1d8549a5298","infoHashBuffer":{"type":"Buffer","data":[8,110,135,128,83,222,251,124,6,167,76,91,53,156,193,216,84,154,82,152]},"announce":[],"urlList":[]}}